<svg data-v-0dd9719b="" version="1.0" xmlns="http://www.w3.org/2000/svg" xmlns:xlink="http://www.w3.org/1999/xlink" width="100%" height="100%" viewBox="0 0 340.000000 250.000000" preserveAspectRatio="xMidYMid meet" color-interpolation-filters="sRGB" style="margin: auto;"> <rect data-v-0dd9719b="" x="0" y="0" width="100%" height="100%" fill="#fff" fill-opacity="1" class="background"></rect> <rect data-v-0dd9719b="" x="0" y="0" width="100%" height="100%" fill="url(#watermark)" fill-opacity="1" class="watermarklayer"></rect> <g data-v-0dd9719b="" fill="#977348" class="icon-text-wrapper icon-svg-group iconsvg" transform="translate(48.474998474121094,99.03811264038086)"><g class="iconsvg-imagesvg" transform="translate(0,0)"><g><rect fill="#977348" fill-opacity="0" stroke-width="2" x="0" y="0" width="60" height="51.92377589698323" class="image-rect"></rect> <svg x="0" y="0" width="60" height="51.92377589698323" filtersec="colorsb4832919430" class="image-svg-svg primary" style="overflow: visible;"><svg viewBox="0 0 357.1579895019531 309.0840148925781" xmlns="http://www.w3.org/2000/svg"><path fill="none" pointer-events="none" d="M0 0h357.158v309.084H0z"></path><path d="M315.159 297.874l30.1-52.7h-213.7l46.1-79.8-30.4-52.6-106.8 185.1z" class="st9" fill="#a18457"></path><path d="M207.959 7.374l-60.7.2 106.9 185h-92.2l-30.4 52.7h213.7z" class="st10" fill="#977348"></path><path d="M9.859 245.474l30.5 52.4 106.9-185.1 46.1 79.9h60.7l-106.8-185.1z" class="st11" fill="#ba9765"></path></svg></svg> <!----></g></g> <g transform="translate(67,9.576889038085938)"><g data-gra="path-name" fill-rule="" class="tp-name iconsvg-namesvg"><g transform="scale(1)"><g><path d="M28.14-15.61L28.14-15.61Q27.45-27.97 17.16-28.66L17.16-28.66Q6.69-28.14 6.18-15.61L6.18-15.61Q6.69-3.43 17.16-2.92L17.16-2.92Q27.45-3.6 28.14-15.61ZM32.43-15.61L32.43-15.61Q31.4 0 17.16 0.51L17.16 0.51Q2.75 0 1.72-15.61L1.72-15.61Q2.57-31.92 17.16-32.26L17.16-32.26Q31.4-31.74 32.43-15.61ZM52.51-13.56L42.21-13.56 42.21 0 37.92 0 37.92-31.4 52.51-31.4Q62.97-31.4 62.97-22.99L62.97-22.99Q62.97-17.85 58.51-15.44L58.51-15.44Q62.29-14.41 62.29-9.44L62.29-9.44 62.63-3.78Q62.46-1.37 64.18-0.69L64.18-0.69 64.18 0 58.86 0Q58.34-2.23 58.17-7.89L58.17-7.89Q58.34-13.56 52.51-13.56L52.51-13.56ZM52.85-27.97L42.21-27.97 42.21-17.16 52.16-17.16Q58.51-17.16 58.51-22.65L58.51-22.65Q58.51-27.97 52.85-27.97L52.85-27.97ZM89.74 0L86.65-9.09 73.96-9.09 70.7 0 66.41 0 78.25-31.4 83.05-31.4 94.38 0 89.74 0ZM80.31-26.77L75.33-12.87 85.11-12.87 80.48-26.77 80.31-26.77ZM124.4-22.14L124.4-22.14 120.29-22.14Q118.74-28.48 111.53-28.66L111.53-28.66Q101.58-28.14 101.24-15.96L101.24-15.96Q101.24-2.92 111.71-2.92L111.71-2.92Q118.91-3.09 120.63-11.67L120.63-11.67 124.75-11.67Q122.86 0.17 110.85 0.51L110.85 0.51Q97.12 0 96.78-15.79L96.78-15.79Q97.46-31.57 111.53-32.26L111.53-32.26Q122.69-31.92 124.4-22.14ZM129.72-31.4L134.01-31.4 134.01-3.78 149.97-3.78 149.97 0 129.72 0 129.72-31.4ZM158.89-3.78L177.77-3.78 177.77 0 154.6 0 154.6-31.4 177.43-31.4 177.43-27.8 158.89-27.8 158.89-18.02 176.05-18.02 176.05-14.24 158.89-14.24 158.89-3.78Z" transform="translate(-1.7200000286102295, 32.2599983215332)"></path></g> <!----> <!----> <!----> <!----> <!----> <!----> <!----></g></g> <!----></g></g></svg>